<mxfile host="app.diagrams.net" modified="2024-01-29T13:56:44.670Z" agent="Mozilla/5.0 (Windows NT 10.0; Win64; x64) AppleWebKit/537.36 (KHTML, like Gecko) Chrome/121.0.0.0 Safari/537.36 Edg/121.0.0.0" etag="dOEro-LC_gXtGx0Vlvto" version="22.1.21" type="device">
  <diagram name="Stránka-1" id="39xG8seLibj54JBR74K3">
    <mxGraphModel dx="1355" dy="661" grid="1" gridSize="10" guides="1" tooltips="1" connect="1" arrows="1" fold="1" page="1" pageScale="1" pageWidth="827" pageHeight="1169" math="0" shadow="0">
      <root>
        <mxCell id="0" />
        <mxCell id="1" parent="0" />
        <mxCell id="MANoC0YM0YdNDLANvT5x-5" value="" style="edgeStyle=orthogonalEdgeStyle;rounded=0;orthogonalLoop=1;jettySize=auto;html=1;" edge="1" parent="1" source="MANoC0YM0YdNDLANvT5x-1" target="MANoC0YM0YdNDLANvT5x-4">
          <mxGeometry relative="1" as="geometry" />
        </mxCell>
        <mxCell id="MANoC0YM0YdNDLANvT5x-1" value="Collatzův&lt;br&gt;problém" style="ellipse;whiteSpace=wrap;html=1;aspect=fixed;" vertex="1" parent="1">
          <mxGeometry x="350" y="20" width="80" height="80" as="geometry" />
        </mxCell>
        <mxCell id="MANoC0YM0YdNDLANvT5x-8" value="" style="edgeStyle=orthogonalEdgeStyle;rounded=0;orthogonalLoop=1;jettySize=auto;html=1;" edge="1" parent="1" source="MANoC0YM0YdNDLANvT5x-4" target="MANoC0YM0YdNDLANvT5x-7">
          <mxGeometry relative="1" as="geometry" />
        </mxCell>
        <mxCell id="MANoC0YM0YdNDLANvT5x-4" value="N - celé číslo" style="shape=parallelogram;perimeter=parallelogramPerimeter;whiteSpace=wrap;html=1;fixedSize=1;" vertex="1" parent="1">
          <mxGeometry x="330" y="130" width="120" height="60" as="geometry" />
        </mxCell>
        <mxCell id="MANoC0YM0YdNDLANvT5x-7" value="Počítadlo = 0" style="whiteSpace=wrap;html=1;" vertex="1" parent="1">
          <mxGeometry x="330" y="220" width="120" height="60" as="geometry" />
        </mxCell>
        <mxCell id="MANoC0YM0YdNDLANvT5x-13" value="" style="edgeStyle=orthogonalEdgeStyle;rounded=0;orthogonalLoop=1;jettySize=auto;html=1;" edge="1" parent="1" source="MANoC0YM0YdNDLANvT5x-9" target="MANoC0YM0YdNDLANvT5x-12">
          <mxGeometry relative="1" as="geometry" />
        </mxCell>
        <mxCell id="MANoC0YM0YdNDLANvT5x-27" value="" style="edgeStyle=orthogonalEdgeStyle;rounded=0;orthogonalLoop=1;jettySize=auto;html=1;" edge="1" parent="1" source="MANoC0YM0YdNDLANvT5x-9" target="MANoC0YM0YdNDLANvT5x-26">
          <mxGeometry relative="1" as="geometry" />
        </mxCell>
        <mxCell id="MANoC0YM0YdNDLANvT5x-9" value="Dokud N je větší než 1" style="strokeWidth=2;html=1;shape=mxgraph.flowchart.loop_limit;whiteSpace=wrap;" vertex="1" parent="1">
          <mxGeometry x="340" y="320" width="100" height="60" as="geometry" />
        </mxCell>
        <mxCell id="MANoC0YM0YdNDLANvT5x-10" style="edgeStyle=orthogonalEdgeStyle;rounded=0;orthogonalLoop=1;jettySize=auto;html=1;entryX=0.5;entryY=0;entryDx=0;entryDy=0;entryPerimeter=0;" edge="1" parent="1" source="MANoC0YM0YdNDLANvT5x-7" target="MANoC0YM0YdNDLANvT5x-9">
          <mxGeometry relative="1" as="geometry" />
        </mxCell>
        <mxCell id="MANoC0YM0YdNDLANvT5x-15" value="" style="edgeStyle=orthogonalEdgeStyle;rounded=0;orthogonalLoop=1;jettySize=auto;html=1;" edge="1" parent="1" source="MANoC0YM0YdNDLANvT5x-12" target="MANoC0YM0YdNDLANvT5x-14">
          <mxGeometry relative="1" as="geometry" />
        </mxCell>
        <mxCell id="MANoC0YM0YdNDLANvT5x-12" value="Počítadlo = počítadlo + 1" style="whiteSpace=wrap;html=1;strokeWidth=2;" vertex="1" parent="1">
          <mxGeometry x="315" y="410" width="150" height="60" as="geometry" />
        </mxCell>
        <mxCell id="MANoC0YM0YdNDLANvT5x-16" style="edgeStyle=orthogonalEdgeStyle;rounded=0;orthogonalLoop=1;jettySize=auto;html=1;entryX=0;entryY=0.5;entryDx=0;entryDy=0;" edge="1" parent="1" source="MANoC0YM0YdNDLANvT5x-14" target="MANoC0YM0YdNDLANvT5x-20">
          <mxGeometry relative="1" as="geometry">
            <mxPoint x="490" y="545" as="targetPoint" />
          </mxGeometry>
        </mxCell>
        <mxCell id="MANoC0YM0YdNDLANvT5x-17" value="Ano" style="edgeLabel;html=1;align=center;verticalAlign=middle;resizable=0;points=[];" vertex="1" connectable="0" parent="MANoC0YM0YdNDLANvT5x-16">
          <mxGeometry x="-0.091" y="-3" relative="1" as="geometry">
            <mxPoint x="-7" y="-3" as="offset" />
          </mxGeometry>
        </mxCell>
        <mxCell id="MANoC0YM0YdNDLANvT5x-18" style="edgeStyle=orthogonalEdgeStyle;rounded=0;orthogonalLoop=1;jettySize=auto;html=1;entryX=1;entryY=0.5;entryDx=0;entryDy=0;" edge="1" parent="1" source="MANoC0YM0YdNDLANvT5x-14" target="MANoC0YM0YdNDLANvT5x-21">
          <mxGeometry relative="1" as="geometry">
            <mxPoint x="290" y="545" as="targetPoint" />
          </mxGeometry>
        </mxCell>
        <mxCell id="MANoC0YM0YdNDLANvT5x-19" value="Ne" style="edgeLabel;html=1;align=center;verticalAlign=middle;resizable=0;points=[];" vertex="1" connectable="0" parent="MANoC0YM0YdNDLANvT5x-18">
          <mxGeometry x="0.1499" y="-7" relative="1" as="geometry">
            <mxPoint x="14" y="7" as="offset" />
          </mxGeometry>
        </mxCell>
        <mxCell id="MANoC0YM0YdNDLANvT5x-14" value="N sudé ?" style="rhombus;whiteSpace=wrap;html=1;strokeWidth=2;" vertex="1" parent="1">
          <mxGeometry x="350" y="505" width="80" height="80" as="geometry" />
        </mxCell>
        <mxCell id="MANoC0YM0YdNDLANvT5x-23" value="" style="edgeStyle=orthogonalEdgeStyle;rounded=0;orthogonalLoop=1;jettySize=auto;html=1;" edge="1" parent="1" source="MANoC0YM0YdNDLANvT5x-20" target="MANoC0YM0YdNDLANvT5x-22">
          <mxGeometry relative="1" as="geometry" />
        </mxCell>
        <mxCell id="MANoC0YM0YdNDLANvT5x-20" value="N = N/2" style="rounded=0;whiteSpace=wrap;html=1;" vertex="1" parent="1">
          <mxGeometry x="490" y="515" width="120" height="60" as="geometry" />
        </mxCell>
        <mxCell id="MANoC0YM0YdNDLANvT5x-24" style="edgeStyle=orthogonalEdgeStyle;rounded=0;orthogonalLoop=1;jettySize=auto;html=1;" edge="1" parent="1" source="MANoC0YM0YdNDLANvT5x-21" target="MANoC0YM0YdNDLANvT5x-22">
          <mxGeometry relative="1" as="geometry">
            <Array as="points">
              <mxPoint x="230" y="630" />
              <mxPoint x="750" y="630" />
            </Array>
          </mxGeometry>
        </mxCell>
        <mxCell id="MANoC0YM0YdNDLANvT5x-21" value="N = 3N+1" style="rounded=0;whiteSpace=wrap;html=1;" vertex="1" parent="1">
          <mxGeometry x="170" y="515" width="120" height="60" as="geometry" />
        </mxCell>
        <mxCell id="MANoC0YM0YdNDLANvT5x-22" value="" style="shape=waypoint;sketch=0;size=6;pointerEvents=1;points=[];fillColor=default;resizable=0;rotatable=0;perimeter=centerPerimeter;snapToPoint=1;rounded=0;" vertex="1" parent="1">
          <mxGeometry x="740" y="535" width="20" height="20" as="geometry" />
        </mxCell>
        <mxCell id="MANoC0YM0YdNDLANvT5x-25" style="edgeStyle=orthogonalEdgeStyle;rounded=0;orthogonalLoop=1;jettySize=auto;html=1;entryX=1;entryY=0.5;entryDx=0;entryDy=0;entryPerimeter=0;" edge="1" parent="1" source="MANoC0YM0YdNDLANvT5x-22" target="MANoC0YM0YdNDLANvT5x-9">
          <mxGeometry relative="1" as="geometry">
            <Array as="points">
              <mxPoint x="750" y="350" />
            </Array>
          </mxGeometry>
        </mxCell>
        <mxCell id="MANoC0YM0YdNDLANvT5x-26" value="Konec, vysledek je v pocitadlo" style="ellipse;whiteSpace=wrap;html=1;strokeWidth=2;" vertex="1" parent="1">
          <mxGeometry x="170" y="310" width="80" height="80" as="geometry" />
        </mxCell>
      </root>
    </mxGraphModel>
  </diagram>
</mxfile>
